<svg id="Layer_1" enable-background="new 0 0 510 510" height="512" viewBox="0 0 510 510" width="512" xmlns="http://www.w3.org/2000/svg"><g><g><path d="m255 0c-98.131 0-158.574 55.347-158.741 55.441-3.787 17.481-10.374 42.85-10.374 61.465 0 140.833 118.763 254.972 259.596 254.972 60.017 0 115.159-27.944 158.719-62.639.177-1.087 5.8-23.477 5.8-54.239 0-140.833-114.167-255-255-255z" fill="#d7f5ff"/><path d="m345.459 364.679c-140.833 0-255-114.167-255-255 0-18.615 2.013-36.757 5.801-54.239-.006.005-.011.01-.017.014-38.96 31.038-68.63 73.24-84.159 121.767l-1.714 17.754-6.01 12.828c-2.863 15.295-4.36 31.071-4.36 47.197 0 135.765 106.1 246.75 239.906 254.561l80.278-7.991c91.508-24.165 163.587-98.032 184.016-192.331-43.56 34.695-98.725 55.44-158.741 55.44z" fill="#afe6ff"/></g><g><path d="m119.429 133.512h-54.092l-26.135 69.892h48.783l33.796-16.265z" fill="#2896ff"/><path d="m119.429 133.512-31.444 69.892 19.395.248z" fill="#1e87dc"/><path d="m284.655 485.809-18.063 3.786 2.586 12.365 30.376 4.146c6.974-1.232 13.855-2.749 20.63-4.538z" fill="#1e87dc"/><path d="m284.655 485.809-20.784-9.219 6.888 32.928c4.665-.286 9.298-.697 13.896-1.232z" fill="#1e73be"/><path d="m271.03 419.65v88.164l-30.041-65.896 5.685-20.064z" fill="#57aa00"/><path d="m271.03 419.65v-83.756l-41.527 80.83 11.486 25.194z" fill="#4f9300"/><path d="m393.264 26.258-57.009-24.51c-1.923-.827-4.065.584-4.065 2.677v143.686z" fill="#ff3c3c"/><path d="m378.319 69.332-82.461-25.919c-1.877-.59-3.787.812-3.787 2.78v156.73z" fill="#dc1428"/><path d="m478.979 26.258 20.091 28.534c1.005 1.427-.016 3.394-1.761 3.394h-28.028l-8.155-15.964z" fill="#ff3c3c"/><path d="m478.979 26.258-9.698 31.928h-26.007z" fill="#dc1428"/><path d="m420.793 112.405 58.186-86.147h-85.715z" fill="#2896ff"/><path d="m97.897 225.287 21.532-91.775 127.723 107.255z" fill="#6e64c3"/><path d="m486.244 240.767-30.521-70.413-43.301-69.616-19.158-74.48-122.871 214.509z" fill="#ffc305"/><path d="m486.244 240.767-246.076 182.406-142.271-197.886z" fill="#ffa50a"/><path d="m486.244 240.767-226.125 167.617-162.222-183.097z" fill="#ffa50a"/><path d="m28.518 322.277 36.819-188.764-53.254 43.71c-3.181 9.942-5.769 20.149-7.722 30.581z" fill="#64bc0f"/><path d="m97.897 225.287 162.222 98.943v84.154l-19.951 14.789z" fill="#fa870a"/><path d="m97.897 225.287 128.368 99.798 7.321 43.658-33.463 7.228z" fill="#ff3c3c"/><path d="m299.554 506.107-45.755-20.296-17.979 4.213 4.086 19.536c4.994.292 10.027.44 15.094.44 15.176 0 30.066-1.333 44.554-3.893z" fill="#2896ff"/><path d="m239.906 509.56c4.599.268 9.231.415 13.892.437v-24.185l-20.789-9.221z" fill="#1e87dc"/><path d="m200.123 375.971 24.714 36.43 15.331-76.507-13.903-10.809z" fill="#dc1428"/><path d="m393.264 26.258-20.078 90.996 82.537 53.1z" fill="#ffa50a"/><path d="m393.264 26.258v77.887l50.01 37.488v-62.512z" fill="#ff3c3c"/><path d="m239.607 509.543.561.033v-173.682l-41.526 80.83z" fill="#64bc0f"/></g></g></svg>